Normalized EMG Linear Envelopes
nRows=129
nColumns=4

endheader
time	 med_gas_r	  soleus_r	 tib_ant_r	
2.9375	  0.010016	  0.020329	  0.005247	
3	  0.010049	  0.019741	  0.005019	
3.0625	  0.010400	  0.019194	  0.005005	
3.125	  0.010757	  0.019197	  0.005117	
3.1875	  0.010704	  0.019658	  0.005183	
3.25	  0.010497	  0.020137	  0.005181	
3.3125	  0.010671	  0.020470	  0.005219	
3.375	  0.011600	  0.021619	  0.005263	
3.4375	  0.013978	  0.023622	  0.005336	
3.5	  0.018101	  0.025787	  0.005355	
3.5625	  0.021996	  0.028277	  0.005220	
3.625	  0.021854	  0.029691	  0.005003	
3.6875	  0.018283	  0.029343	  0.004721	
3.75	  0.014517	  0.028423	  0.004438	
3.8125	  0.011686	  0.027632	  0.004383	
3.875	  0.010021	  0.027453	  0.004585	
3.9375	  0.009424	  0.027060	  0.004945	
4	  0.009496	  0.025571	  0.005186	
4.0625	  0.009775	  0.023694	  0.005163	
4.125	  0.009913	  0.022092	  0.005134	
4.1875	  0.009892	  0.021323	  0.005179	
4.25	  0.009932	  0.020750	  0.005198	
4.3125	  0.010170	  0.020409	  0.005103	
4.375	  0.011011	  0.020465	  0.004987	
4.4375	  0.012892	  0.019877	  0.004971	
4.5	  0.015655	  0.018843	  0.004968	
4.5625	  0.017664	  0.018333	  0.005007	
4.625	  0.016831	  0.018298	  0.005153	
4.6875	  0.014458	  0.017659	  0.005391	
4.75	  0.012389	  0.016821	  0.005589	
4.8125	  0.011449	  0.016609	  0.005487	
4.875	  0.011679	  0.017729	  0.005182	
4.9375	  0.012329	  0.020861	  0.005083	
5	  0.012847	  0.026760	  0.005440	
5.0625	  0.013107	  0.035323	  0.006292	
5.125	  0.013087	  0.043124	  0.007298	
5.1875	  0.012575	  0.043271	  0.007791	
5.25	  0.011649	  0.035979	  0.007416	
5.3125	  0.010662	  0.027107	  0.006509	
5.375	  0.009900	  0.019913	  0.005327	
5.4375	  0.009303	  0.014837	  0.004115	
5.5	  0.008800	  0.011921	  0.003147	
5.5625	  0.008700	  0.012690	  0.002961	
5.625	  0.010256	  0.020992	  0.004840	
5.6875	  0.015720	  0.042225	  0.010671	
5.75	  0.027576	  0.080561	  0.022293	
5.8125	  0.047521	  0.134879	  0.039679	
5.875	  0.075399	  0.199392	  0.059682	
5.9375	  0.107603	  0.260741	  0.077857	
6	  0.133493	  0.301623	  0.089719	
6.0625	  0.141564	  0.315014	  0.094512	
6.125	  0.137577	  0.316218	  0.096350	
6.1875	  0.139530	  0.323489	  0.099306	
6.25	  0.153378	  0.331162	  0.102572	
6.3125	  0.175550	  0.329480	  0.106337	
6.375	  0.202002	  0.321241	  0.111011	
6.4375	  0.247101	  0.323179	  0.115884	
6.5	  0.319507	  0.337877	  0.118623	
6.5625	  0.400629	  0.349357	  0.119762	
6.625	  0.466798	  0.351863	  0.119273	
6.6875	  0.507165	  0.355655	  0.119636	
6.75	  0.522728	  0.350928	  0.122420	
6.8125	  0.531331	  0.342454	  0.128762	
6.875	  0.545093	  0.339623	  0.140307	
6.9375	  0.568264	  0.345722	  0.154587	
7	  0.585488	  0.362980	  0.165678	
7.0625	  0.594031	  0.379837	  0.165589	
7.125	  0.600326	  0.389555	  0.158583	
7.1875	  0.605795	  0.390802	  0.156570	
7.25	  0.615195	  0.386609	  0.161597	
7.3125	  0.632844	  0.379452	  0.170649	
7.375	  0.663863	  0.390169	  0.176278	
7.4375	  0.693289	  0.422856	  0.176538	
7.5	  0.703966	  0.461402	  0.181752	
7.5625	  0.695374	  0.496732	  0.192744	
7.625	  0.675831	  0.518146	  0.203977	
7.6875	  0.672169	  0.536051	  0.213891	
7.75	  0.713481	  0.537368	  0.222625	
7.8125	  0.773144	  0.511085	  0.227579	
7.875	  0.801384	  0.459519	  0.230099	
7.9375	  0.792096	  0.425026	  0.233852	
8	  0.783273	  0.445182	  0.234380	
8.0625	  0.780934	  0.509382	  0.229241	
8.125	  0.778347	  0.567337	  0.227893	
8.1875	  0.762584	  0.610721	  0.233989	
8.25	  0.761400	  0.670446	  0.237126	
8.3125	  0.762264	  0.721151	  0.230221	
8.375	  0.740834	  0.720490	  0.218076	
8.4375	  0.700701	  0.661740	  0.210154	
8.5	  0.661575	  0.584433	  0.208342	
8.5625	  0.641342	  0.531471	  0.212910	
8.625	  0.645098	  0.524231	  0.218421	
8.6875	  0.666785	  0.556676	  0.219516	
8.75	  0.693898	  0.594259	  0.221760	
8.8125	  0.723094	  0.620717	  0.231601	
8.875	  0.745856	  0.641230	  0.248453	
8.9375	  0.751108	  0.653440	  0.259532	
9	  0.745419	  0.654890	  0.255402	
9.0625	  0.753792	  0.631670	  0.241946	
9.125	  0.784041	  0.617515	  0.233198	
9.1875	  0.823805	  0.627885	  0.233508	
9.25	  0.847042	  0.621374	  0.232434	
9.3125	  0.851222	  0.588847	  0.229185	
9.375	  0.828165	  0.547419	  0.224327	
9.4375	  0.775068	  0.522102	  0.216203	
9.5	  0.709758	  0.506588	  0.215279	
9.5625	  0.656281	  0.505602	  0.226776	
9.625	  0.629623	  0.506975	  0.246113	
9.6875	  0.627897	  0.495332	  0.262233	
9.75	  0.645830	  0.493806	  0.265159	
9.8125	  0.680531	  0.511137	  0.256313	
9.875	  0.731039	  0.546913	  0.244846	
9.9375	  0.778206	  0.569845	  0.230594	
10	  0.801715	  0.564795	  0.214771	
10.0625	  0.779092	  0.530229	  0.201549	
10.125	  0.707275	  0.476198	  0.193250	
10.1875	  0.629153	  0.441412	  0.186230	
10.25	  0.584761	  0.431346	  0.179375	
10.3125	  0.567864	  0.428884	  0.170139	
10.375	  0.529251	  0.414686	  0.151960	
10.4375	  0.457152	  0.382840	  0.128017	
10.5	  0.380003	  0.349048	  0.104096	
10.5625	  0.301160	  0.307746	  0.084412	
10.625	  0.230899	  0.245224	  0.068195	
10.6875	  0.167322	  0.172039	  0.056243	
10.75	  0.107988	  0.103047	  0.050229	
10.8125	  0.058347	  0.053677	  0.047339	
10.875	  0.027197	  0.027444	  0.045686	
10.9375	  0.012593	  0.018269	  0.042851	
